<?xml version="1.0" encoding="UTF-8"?>
<svg id="newBookCoversEditableText" xmlns="http://www.w3.org/2000/svg" xmlns:xlink="http://www.w3.org/1999/xlink" viewBox="0 0 148.03 193.76">
  <defs>
    <style>
      .cls-1 {
        clip-path: url(#clippath);
      }

      .cls-2 {
        fill: none;
      }

      .cls-2, .cls-3, .cls-4, .cls-5, .cls-6, .cls-7, .cls-8, .cls-9, .cls-10 {
        stroke-width: 0px;
      }

      .cls-11 {
        stroke: #05004d;
        stroke-linecap: round;
        stroke-linejoin: round;
        stroke-width: .5px;
      }

      .cls-11, .cls-9 {
        fill: #05004d;
      }

      .cls-3 {
        fill: #f3f4ef;
      }

      .cls-4 {
        fill: #6364ff;
      }

      .cls-5 {
        fill: #3e4347;
      }

      .cls-6 {
        fill: #b6b9c2;
      }

      .cls-7 {
        fill: #fff;
      }

      .cls-8 {
        fill: #f5f6f3;
      }

      .cls-10 {
        fill: #6a7c5c;
      }
    </style>
    <clipPath id="clippath">
      <rect class="cls-2" x="6.85" y="1.98" width="139.7" height="189.79" rx="8.44" ry="8.44"/>
    </clipPath>
  </defs>
  <rect class="cls-9" x="6.85" y="1.98" width="139.7" height="189.79" rx="8.44" ry="8.44"/>
  <g class="cls-1">
    <path class="cls-4" d="M35.73,275.57c-4.69,0-9.38-1.21-13.56-3.62l-31.71-18.28c-8.38-4.83-13.59-13.84-13.59-23.52v-36.51c0-9.67,5.21-18.69,13.59-23.52l31.71-18.28c8.36-4.82,18.76-4.82,27.12,0l31.71,18.28c8.38,4.83,13.59,13.84,13.59,23.52v36.51c0,9.68-5.21,18.69-13.59,23.52l-31.71,18.28c-4.18,2.41-8.87,3.62-13.56,3.62Z"/>
    <path class="cls-4" d="M119.53,33.03c-4.69,0-9.38-1.21-13.56-3.62l-31.71-18.28c-8.38-4.83-13.59-13.84-13.59-23.52v-36.51c0-9.68,5.21-18.69,13.59-23.52l31.71-18.28c8.36-4.82,18.76-4.82,27.12,0l31.71,18.28c8.38,4.83,13.59,13.84,13.59,23.52V-12.38c0,9.68-5.21,18.69-13.59,23.52l-31.71,18.28c-4.18,2.41-8.87,3.62-13.56,3.62Z"/>
  </g>
  <g>
    <g>
      <path class="cls-8" d="M115.53,97.28H41.51c-2.02,0-3.65-1.63-3.65-3.65v-20.98h74.02c2.02,0,3.65,1.63,3.65,3.65v20.98Z"/>
      <g>
        <path class="cls-10" d="M63.21,79c-.88,0-1.52.6-1.52,1.42s.64,1.42,1.52,1.42,1.54-.6,1.54-1.42-.65-1.42-1.54-1.42"/>
        <path class="cls-10" d="M69.2,92.15c.99.04,1.95-.32,2.67-1.01l-.15-.32c-.32.09-.65.15-.98.18-.89,0-1.21-.34-1.21-1.28v-6.53h2.4l.33-.53h-2.73v-2.88h-.89c-.31.98-.94,1.82-1.79,2.4-.79.53-1.61.66-2.77.73l-3.1.2v.21l.55.42c.51.37.59.45.59,1.22v5.68c0,.79-.07.89-.72,1.07l-.34.09v.23h4.39v-.23l-.34-.09c-.65-.16-.72-.26-.72-1.07v-5.84c0-.2,0-.77.01-.86.02-.36.1-.75.57-.75h2.02v6.54c0,1.72.56,2.42,2.19,2.42"/>
        <path class="cls-10" d="M51.59,84.9l3.43,7.19h.63c1.85,0,5.05-3.85,5.04-7.14,0-1.3-.48-3.27-2.29-3.27-.95,0-1.6.67-1.52,1.48.04.42.25.8.58,1.06.3.28.52.63.66,1.02.56,2-.64,4.87-1.53,5.32,0,0-2.19-4.7-2.47-5.33-.16-.29-.25-.61-.26-.94-.03-.4.24-.75.64-.81l.41-.11v-.27l-4.96.02v.27l.27.09c.47.13.91.4,1.37,1.4"/>
        <path class="cls-10" d="M99.59,92.17c-.64,0-1.27-.12-1.85-.36-.55-.23-1.04-.57-1.45-1-.41-.44-.73-.96-.94-1.52-.23-.61-.34-1.26-.34-1.92-.04-1.32.48-2.6,1.44-3.5.43-.39.93-.7,1.47-.9.54-.2,1.11-.3,1.68-.3,2.13,0,3.4,1.09,3.78,3.23,0,.01.05.32.06.45.02.31-.13.34-.47.4l-.1.02c-.44.08-4.92.51-4.95.51h-.07v.07c-.03.96.07,1.92.28,2.86.29,1.01.8,1.52,1.54,1.52.31.02.6-.11.81-.34.21-.29.33-.64.34-1,.04-.61,0-1.23-.12-1.83v-.02c.24-.09.5-.13.75-.11.26,0,1.15.03,1.54.4.29.27.38.69.25,1.06-.2.66-.64,1.23-1.22,1.59-.74.46-1.59.7-2.46.68ZM99.54,83.14c-.65,0-1.06.33-1.32,1.03-.25.7-.32,1.72-.35,2.71.02,0,2.15-.27,2.32-.3.79-.16.78-.83.7-1.55-.14-1.26-.6-1.89-1.35-1.89Z"/>
        <path class="cls-10" d="M85.65,92.17c-.76.01-1.52-.1-2.24-.35-.54-.2-1.06-.47-1.54-.8v-9.92c0-.86-.05-1.09-.59-1.36l-.56-.29v-.33l3.35-1.35.41.18c0,.23-.1,5.96-.1,6.02.81-.78,1.9-1.21,3.03-1.2.45,0,.9.1,1.3.31.38.21.7.51.93.88.49.75.75,1.84.75,3.16,0,1.53-.45,2.81-1.29,3.7-.84.89-2.04,1.36-3.47,1.36ZM85.82,83.97c-.48.04-.95.13-1.41.27v6.97c.24.26.85.45,1.44.45.7,0,1.2-.39,1.52-1.18.28-.7.42-1.7.42-3.06,0-1.17-.15-2.01-.47-2.58-.28-.56-.87-.9-1.49-.86h0Z"/>
        <path class="cls-10" d="M90.26,79.45l.56.29c.55.27.62.4.62,1.27v9.48c0,.79-.07,1.06-.75,1.24l-.34.09v.23h4.77v-.23l-.36-.09c-.69-.18-.75-.44-.75-1.24v-10.31c0-.99.04-2.03.05-2.28l-.45-.13-3.35,1.35v.33Z"/>
        <path class="cls-10" d="M79.44,92.17c-1.07,0-1.72-.43-1.84-1.22-.74.75-1.74,1.19-2.8,1.22-1.61,0-2.54-.81-2.54-2.22s.9-2.13,3.22-2.69l2.11-.56v-.04c0-.85,0-1.73-.2-2.39-.22-.75-.67-1.11-1.37-1.11-.34-.01-.67.14-.89.41-.39.49-.47,1.42-.21,2.54.03.11.02.16-.02.17-.19.05-.38.07-.57.06-.52,0-1.22-.13-1.61-.5-.27-.26-.37-.66-.24-1.02.38-1.37,1.94-1.9,1.96-1.91h.02c.6-.2,1.23-.29,1.87-.28.84-.02,1.67.2,2.39.64.84.56,1.26,1.46,1.26,2.67v.17s0,3.72,0,3.72c0,.67.06.98.44,1.18l.16.04c.27-.02.53-.13.73-.3v.33c-.14.26-.33.48-.58.65-.38.29-.84.45-1.31.45ZM77.58,87.02c-1.66.36-2.5,1.18-2.5,2.42,0,1.09.41,1.7,1.15,1.7.45,0,1.21-.28,1.36-.56v-3.56Z"/>
      </g>
    </g>
    <g>
      <path class="cls-3" d="M74.48,55.16c-.15.15-.25.28-.38.39-.58.5-1.27.73-2.03.74-.82,0-1.58-.22-2.22-.75-.51-.42-.84-.96-1.05-1.58-.27-.78-.29-1.59-.18-2.4.09-.59.28-1.13.62-1.62.58-.85,1.38-1.33,2.4-1.43.52-.05,1.03,0,1.53.16.52.17.95.47,1.29.89.02.03.04.07.08.09.04-.05.02-.11.02-.17,0-.21,0-.43,0-.64,0-.08.03-.11.11-.11.47,0,.95,0,1.42,0,.08,0,.11.03.1.1,0,.04,0,.08,0,.12,0,3.17,0,6.33,0,9.5,0,.02,0,.03,0,.05,0,.17,0,.17-.17.17-.46,0-.93,0-1.39,0-.17,0-.17,0-.17-.17,0-1.05,0-2.11,0-3.16,0-.05,0-.09,0-.18ZM70.34,52.37c0,.45.07.89.26,1.3.31.69.83,1.12,1.6,1.2.92.1,1.78-.41,2.13-1.26.33-.81.32-1.63,0-2.43-.31-.77-.89-1.21-1.73-1.28-.85-.06-1.5.27-1.92,1.02-.25.45-.34.94-.34,1.45Z"/>
      <path class="cls-3" d="M106.32,52.88c.02.25.08.5.17.73.24.58.63,1.01,1.23,1.21.65.21,1.29.18,1.89-.19.19-.12.34-.28.46-.47.06-.1.13-.14.25-.13.47,0,.94,0,1.41,0,.05,0,.1,0,.15.01,0,.08-.03.14-.05.2-.47,1.09-1.29,1.75-2.44,2.02-.77.18-1.53.15-2.28-.08-.85-.27-1.52-.78-1.97-1.55-.48-.82-.62-1.71-.54-2.64.05-.61.22-1.18.53-1.71.36-.62.87-1.1,1.52-1.41.89-.42,1.82-.5,2.76-.26.95.24,1.67.8,2.13,1.67.38.71.52,1.48.49,2.28,0,.1.04.23-.04.3-.07.06-.19.02-.29.02-1.74,0-3.48-.01-5.21-.02-.06,0-.12-.01-.18.02ZM108.33,51.64h0c.61,0,1.21,0,1.82,0,.15,0,.16,0,.13-.16-.04-.23-.11-.46-.23-.67-.2-.36-.48-.64-.87-.81-.34-.15-.7-.18-1.07-.15-.98.09-1.56.74-1.72,1.63-.03.16-.02.16.14.16.6,0,1.19,0,1.79,0Z"/>
      <path class="cls-3" d="M61.99,52.84c.01.28.09.54.19.79.24.56.63.97,1.21,1.16.66.21,1.3.18,1.9-.2.19-.12.34-.28.45-.47.06-.09.12-.12.22-.12.48,0,.96,0,1.44,0,.05,0,.09,0,.14.02-.04.19-.13.37-.22.54-.5.9-1.27,1.44-2.28,1.67-.76.17-1.52.15-2.27-.08-.77-.24-1.4-.68-1.86-1.35-.54-.79-.72-1.67-.69-2.6.02-.6.15-1.18.42-1.72.37-.75.93-1.31,1.69-1.65,1.04-.47,2.11-.5,3.18-.09.72.27,1.26.77,1.63,1.44.45.8.58,1.66.53,2.56,0,.09-.04.11-.12.1-.24,0-.49,0-.73,0-1.56,0-3.13,0-4.69-.01-.06,0-.12,0-.18.02ZM65.97,51.59c-.06-.55-.27-1.02-.7-1.37-.46-.38-1.01-.46-1.59-.39-.27.03-.52.12-.75.26-.53.33-.77.84-.88,1.43-.01.06,0,.09.07.09.03,0,.07,0,.1,0,1.19,0,2.37,0,3.56,0,.06,0,.12.01.18-.02Z"/>
      <path class="cls-3" d="M82.7,55.16c-.06,0-.07.06-.09.1-.39.57-.93.91-1.61,1.02-.57.1-1.13.07-1.68-.12-.64-.22-1.07-.67-1.32-1.29-.17-.42-.25-.85-.28-1.3,0-.17-.01-.35-.01-.52,0-1.38,0-2.75,0-4.13,0-.2-.02-.19.18-.19.45,0,.9,0,1.36,0,.22,0,.19,0,.19.2,0,1.23,0,2.45,0,3.68,0,.41.01.81.12,1.2.09.32.24.61.51.83.09.07.19.13.3.16.55.17,1.08.16,1.56-.19.32-.23.48-.58.57-.95.09-.36.12-.73.12-1.1,0-1.2,0-2.4,0-3.59,0-.27-.04-.24.24-.24.43,0,.87,0,1.3,0,.21,0,.19,0,.19.18,0,.39,0,.78,0,1.16,0,1.9,0,3.8,0,5.69,0,.09,0,.17,0,.26,0,.07-.02.11-.1.1-.02,0-.05,0-.07,0-.43,0-.87,0-1.3,0-.17,0-.17,0-.17-.17,0-.23,0-.45,0-.68,0-.04.02-.09-.02-.13Z"/>
      <path class="cls-3" d="M98.31,53.8c.23,0,.45,0,.68,0,.1,0,.14.03.17.12.08.25.21.46.4.64.24.23.53.36.87.4.42.05.84.03,1.21-.2.25-.15.41-.35.42-.66.01-.23-.09-.4-.27-.53-.19-.13-.42-.2-.64-.27-.46-.13-.91-.25-1.37-.39-.36-.1-.7-.23-1.03-.41-.79-.43-1.1-1.15-.98-2.03.1-.73.52-1.25,1.16-1.59.69-.37,1.43-.45,2.19-.37.5.05.97.2,1.4.49.58.38.92.92,1.02,1.6,0,.04,0,.08.01.12,0,.05-.02.07-.07.08-.02,0-.05,0-.07,0-.42,0-.83,0-1.25,0-.09,0-.14-.02-.18-.12-.2-.48-.57-.74-1.08-.81-.35-.05-.69-.04-1.02.11-.27.13-.43.34-.45.65-.01.25.09.44.3.56.27.16.56.24.86.32.5.13,1,.24,1.49.42.32.12.62.25.9.45.37.26.6.61.67,1.05.13.78-.03,1.49-.6,2.07-.37.38-.84.61-1.36.73-.77.18-1.54.16-2.3-.07-.72-.22-1.26-.67-1.59-1.36-.13-.27-.21-.56-.28-.85-.04-.17-.04-.18.13-.18.22,0,.44,0,.66,0Z"/>
      <path class="cls-3" d="M90.14,52.35c0-.71,0-1.41,0-2.12,0-.03,0-.07,0-.1,0-.09-.03-.12-.12-.12-.23,0-.46,0-.69,0-.05,0-.1,0-.16,0-.15,0-.15,0-.15-.15,0-.34,0-.67,0-1.01,0-.09.03-.12.12-.12.29,0,.58,0,.87,0,.13,0,.13,0,.13-.14,0-.55,0-1.1,0-1.65,0-.04,0-.08,0-.12,0-.06.02-.1.09-.1.02,0,.03,0,.05,0,.49,0,.97,0,1.46,0,.13,0,.13,0,.13.14,0,.57,0,1.13,0,1.7,0,.16,0,.16.16.16.36,0,.73,0,1.09,0,.13,0,.13,0,.14.13,0,.34,0,.67,0,1.01,0,.13,0,.14-.13.14-.36,0-.73,0-1.09,0-.16,0-.16,0-.16.16,0,1.29,0,2.58,0,3.87,0,.15.02.3.06.45.07.24.23.38.47.44.2.05.4.05.6.03.11,0,.12,0,.12.11,0,.35,0,.69,0,1.04,0,.08-.02.12-.1.13-.6.06-1.19.06-1.77-.13-.67-.22-1.01-.7-1.09-1.38-.02-.14-.02-.29-.02-.43,0-.65,0-1.3,0-1.94Z"/>
      <path class="cls-3" d="M94.49,52.43c0-1.17,0-2.34,0-3.51,0-.19-.02-.19.19-.19.45,0,.9,0,1.36,0,.22,0,.19,0,.19.2,0,1.93,0,3.87,0,5.8,0,.42,0,.83,0,1.25,0,.15,0,.16-.15.16-.47,0-.95,0-1.42,0-.16,0-.16,0-.16-.17,0-1.02,0-2.04,0-3.06v-.49Z"/>
      <path class="cls-3" d="M87.94,52.45c0,1.15,0,2.3,0,3.45,0,.04,0,.08,0,.12,0,.09-.04.12-.12.12-.5,0-1,0-1.49,0-.1,0-.12-.04-.12-.12,0-.03,0-.07,0-.1,0-2.32,0-4.64,0-6.96,0-.03,0-.06,0-.09,0-.13,0-.13.14-.13.49,0,.97,0,1.46,0,.13,0,.13,0,.13.14,0,.57,0,1.13,0,1.7,0,.62,0,1.25,0,1.87Z"/>
      <path class="cls-3" d="M87.07,47.66c-.25,0-.51,0-.76,0-.12,0-.13,0-.13-.13,0-.45,0-.9,0-1.35,0-.13,0-.13.12-.13.51,0,1.03,0,1.54,0,.08,0,.11.03.11.11,0,.46,0,.92,0,1.39,0,.09-.04.12-.12.12-.25,0-.51,0-.76,0Z"/>
      <path class="cls-3" d="M95.36,46.05c.25,0,.51,0,.76,0,.09,0,.12.03.12.12,0,.46,0,.91,0,1.37,0,.12,0,.12-.13.12-.51,0-1.02,0-1.53,0-.09,0-.12-.02-.12-.12,0-.46,0-.92,0-1.39,0-.09.04-.11.11-.11.26,0,.52,0,.78,0Z"/>
      <path class="cls-3" d="M114.33,49.72c-.67,0-1.19-.53-1.19-1.19,0-.67.54-1.2,1.21-1.19.66,0,1.19.54,1.18,1.2,0,.66-.53,1.18-1.2,1.18ZM115.29,48.53c0-.53-.44-.97-.96-.96-.53,0-.95.43-.95.97,0,.54.43.97.95.96.53,0,.95-.43.95-.97Z"/>
      <path class="cls-3" d="M114.93,49.22c-.11,0-.2,0-.29,0-.06,0-.09-.05-.12-.09-.07-.11-.13-.23-.2-.34-.02-.04-.05-.08-.11-.06-.05.02-.03.07-.03.11,0,.1,0,.21,0,.31,0,.05-.02.08-.07.08-.02,0-.03,0-.05,0-.23,0-.19,0-.19-.18,0-.35,0-.71,0-1.06,0-.12,0-.13.12-.13.17,0,.34,0,.5,0,.2.01.33.11.38.27.06.19,0,.38-.17.49-.08.05-.08.09-.03.16.09.13.18.27.25.44ZM114.18,48.27s0,.07,0,.1c0,.03.01.06.05.06.1,0,.2.02.29-.03.06-.03.07-.09.07-.15,0-.06-.04-.11-.11-.12-.04,0-.09-.01-.14-.01-.15,0-.16,0-.16.15Z"/>
      <g>
        <path class="cls-4" d="M45.53,61.74c-.14-.08-.31-.12-.45-.19-.42-.2-.82-.45-1.23-.69-.72-.41-1.44-.82-2.15-1.23-.69-.4-1.4-.77-2.07-1.21-.81-.54-1.34-1.3-1.62-2.24-.11-.36-.15-.73-.15-1.11,0-1.83,0-3.66,0-5.49,0-1.23.48-2.24,1.38-3.06.23-.21.5-.38.77-.53.99-.57,1.99-1.14,2.98-1.71.64-.36,1.28-.73,1.92-1.09.38-.21.79-.33,1.22-.4.03,0,.05-.02.08-.03.22,0,.43-.01.65-.01.71,0,1.36.2,1.98.55.65.37,1.29.74,1.93,1.11.99.57,1.99,1.13,2.97,1.71.73.43,1.26,1.06,1.6,1.84.24.55.34,1.12.33,1.72,0,1.79,0,3.57,0,5.36,0,1.17-.43,2.16-1.26,2.98-.28.28-.61.49-.95.68-.66.38-1.33.76-1.99,1.14-.9.51-1.79,1.03-2.69,1.53-.89.5-1.84.65-2.84.45-.14-.03-.27-.08-.41-.09ZM54.01,52.33c0-.82,0-1.63,0-2.45,0-.31-.05-.61-.14-.9-.24-.74-.71-1.29-1.38-1.68-.54-.31-1.07-.61-1.61-.92-.86-.49-1.72-.99-2.58-1.48-.4-.23-.82-.38-1.28-.41-.55-.04-1.07.04-1.55.29-.46.24-.9.5-1.35.76-1.02.58-2.05,1.17-3.07,1.76-1.01.58-1.53,1.46-1.54,2.62-.02,1.6,0,3.21,0,4.81,0,.2.02.41.06.61.18.87.65,1.53,1.41,1.99.23.14.47.27.71.41,1.17.67,2.35,1.35,3.52,2.02,1.01.57,2.03.59,3.05.03.47-.25.93-.53,1.39-.79.9-.52,1.81-1.04,2.71-1.55.35-.2.67-.42.93-.73.48-.56.72-1.21.72-1.95,0-.81,0-1.62,0-2.43Z"/>
        <path class="cls-4" d="M48.91,53.15c-.93,0-1.86,0-2.79,0-.26,0-.48-.08-.65-.27-.21-.24-.28-.52-.16-.82.12-.32.36-.5.7-.54.06,0,.12,0,.19,0,1.27,0,2.54,0,3.81,0,.21,0,.22,0,.15-.21-.25-.78-.72-1.39-1.38-1.86-.48-.33-1.01-.54-1.58-.61-.77-.09-1.5.05-2.18.44-.82.48-1.39,1.17-1.66,2.09-.32,1.08-.12,2.09.52,3.01.4.58.93,1,1.59,1.25.72.27,1.46.32,2.2.12.61-.17,1.14-.46,1.59-.91.06-.06.12-.09.21-.09.58,0,1.17,0,1.75,0,.02,0,.05,0,.07,0,.04,0,.06.03.05.07-.01.03-.03.06-.05.09-.51.87-1.21,1.53-2.1,2-.92.48-1.9.68-2.93.59-1.02-.09-1.94-.47-2.75-1.11-.62-.49-1.1-1.09-1.45-1.8-.36-.74-.54-1.52-.51-2.33.04-1.24.46-2.33,1.26-3.28.72-.86,1.65-1.39,2.73-1.65.64-.15,1.29-.19,1.94-.1,1.26.17,2.3.74,3.15,1.67.69.75,1.12,1.63,1.29,2.64.08.5.09,1,.01,1.51-.02.13-.02.13-.15.13-.32,0-.64,0-.95,0-.64,0-1.28,0-1.92,0Z"/>
      </g>
    </g>
    <g>
      <path class="cls-7" d="M40.77,102.39h71.85c1.61,0,2.91,1.31,2.91,2.91v9.86c0,1.61-1.3,2.91-2.91,2.91H40.77c-1.61,0-2.91-1.3-2.91-2.91v-9.86c0-1.61,1.31-2.91,2.91-2.91Z"/>
      <g>
        <path class="cls-11" d="M70.85,111.17c-.33,1.06-1.18,1.66-2.4,1.66-1.52,0-2.54-.97-2.54-2.59s1.04-2.6,2.55-2.6c1.23,0,2.09.64,2.4,1.72h-1.25c-.22-.48-.6-.76-1.16-.76-.84,0-1.34.64-1.34,1.65s.5,1.6,1.34,1.6c.53,0,.89-.25,1.11-.67h1.28Z"/>
        <path class="cls-11" d="M72.01,112.73c.45-1.2,1.19-3.17,1.92-5.01h1.38c.6,1.6,1.27,3.43,1.87,5.01h-1.2c-.15-.4-.29-.77-.44-1.18h-1.89l-.45,1.18h-1.18ZM75.22,110.64c-.26-.82-.45-1.35-.63-1.96h-.01c-.17.62-.41,1.3-.62,1.96h1.27Z"/>
        <path class="cls-11" d="M79.52,111.21c.07.46.36.69.88.69.47,0,.77-.22.77-.58s-.26-.43-.8-.58l-.34-.1c-1.1-.31-1.55-.72-1.55-1.51,0-.89.75-1.5,1.89-1.5s1.81.53,1.87,1.51h-1.15c-.08-.39-.31-.6-.76-.6-.42,0-.65.2-.65.5,0,.34.23.44.62.55l.38.11c1.13.32,1.67.66,1.67,1.55,0,.96-.8,1.56-2,1.56s-1.96-.6-2.01-1.61h1.18Z"/>
        <path class="cls-11" d="M85.29,111.75h2.19v.98h-3.32v-5.01h3.29v.98h-2.16v1.02h1.98v.97h-1.98v1.06Z"/>
      </g>
    </g>
    <g>
      <rect class="cls-7" x="37.86" y="123.32" width="77.67" height="15.69" rx="2.91" ry="2.91"/>
      <g>
        <path class="cls-11" d="M64.42,132.14c.07.46.36.69.88.69.47,0,.77-.22.77-.58s-.26-.43-.8-.58l-.34-.1c-1.1-.31-1.55-.72-1.55-1.51,0-.89.75-1.5,1.89-1.5s1.81.53,1.87,1.51h-1.15c-.08-.39-.31-.6-.76-.6-.42,0-.65.2-.65.5,0,.34.23.44.62.55l.38.11c1.13.32,1.67.66,1.67,1.55,0,.96-.8,1.56-2,1.56s-1.96-.6-2.01-1.61h1.18Z"/>
        <path class="cls-11" d="M70.02,133.66v-4.02h-1.32v-.99h3.8v.99h-1.32v4.02h-1.15Z"/>
        <path class="cls-11" d="M77.06,131.61v-2.95h1.15v2.98c0,.64-.13,1.08-.39,1.42-.34.45-.88.69-1.62.69s-1.27-.23-1.62-.69c-.26-.34-.39-.78-.39-1.42v-2.98h1.15v2.95c0,.78.3,1.16.86,1.16s.86-.38.86-1.16Z"/>
        <path class="cls-11" d="M80.26,128.66h1.25c.23,0,.48,0,.72,0,1.48.06,2.44.95,2.44,2.48,0,.86-.39,1.76-1.02,2.1-.56.39-1.24.42-2.16.42h-1.23v-5.01ZM81.41,132.69h.39c.3,0,.55-.03.75-.09.59-.18.9-.63.9-1.45,0-.78-.31-1.25-.9-1.44-.18-.06-.41-.09-.68-.09h-.46v3.07Z"/>
        <path class="cls-11" d="M88.5,131.79v1.88h-1.15v-1.88l-.6-1.14c-.34-.64-.74-1.44-1.04-1.99h1.28c.33.7.65,1.4.96,2.07h.01c.2-.5.5-1.11.95-2.07h1.23l-1.65,3.13Z"/>
      </g>
    </g>
  </g>
  <g>
    <g>
      <g>
        <path class="cls-5" d="M9.54,180.75c0-1.06.83-1.92,1.86-1.92s1.86.86,1.86,1.92-.83,1.92-1.86,1.92c-1.03,0-1.86-.86-1.86-1.92Z"/>
        <path class="cls-5" d="M9.54,173.01c0-1.06.83-1.92,1.86-1.92,1.03,0,1.86.86,1.86,1.92,0,1.06-.83,1.92-1.86,1.92-1.03,0-1.86-.86-1.86-1.92Z"/>
        <path class="cls-5" d="M9.54,165.37c0-1.06.83-1.92,1.86-1.92,1.03,0,1.86.86,1.86,1.92s-.83,1.92-1.86,1.92c-1.03,0-1.86-.86-1.86-1.92Z"/>
        <path class="cls-5" d="M9.54,157.72c0-1.06.83-1.92,1.86-1.92,1.03,0,1.86.86,1.86,1.92,0,1.06-.83,1.92-1.86,1.92-1.03,0-1.86-.86-1.86-1.92Z"/>
        <path class="cls-5" d="M2.95,164.96s0-.02,0-.03c0,.01,0,.02,0,.04h0ZM3.2,162.57c-.81.41-1.68,1.11-1.72,2.36-.04,1.21,1.38,1.23,1.47.06,0,0,0,0,0,0,0,.03.2-.27.11-.18.28-.28.57-.43.89-.56.93-.4,1.92-.51,2.9-.52v-1.91c-1.22,0-2.5.17-3.65.75Z"/>
        <path class="cls-5" d="M2.95,172.61s0-.02,0-.03c0,.01,0,.02,0,.03h0ZM3.2,170.21c-.81.41-1.68,1.11-1.72,2.36-.04,1.21,1.38,1.23,1.47.06,0,0,0,0,0,0,0,.03.2-.27.11-.18.28-.28.57-.43.89-.56.93-.4,1.92-.51,2.9-.52v-1.91c-1.22,0-2.5.17-3.65.75Z"/>
        <path class="cls-5" d="M2.95,180.26s0-.02,0-.03c0,.01,0,.02,0,.03h0ZM3.2,177.86c-.81.41-1.68,1.11-1.72,2.37-.04,1.21,1.38,1.23,1.47.06,0,0,0,0,0,0,0,.03.2-.27.11-.18.28-.28.57-.42.89-.56.93-.4,1.92-.51,2.9-.52v-1.91c-1.22,0-2.5.17-3.65.75Z"/>
        <path class="cls-5" d="M2.95,157.32s0-.02,0-.03c0,.01,0,.02,0,.04h0ZM3.2,154.92c-.81.41-1.68,1.11-1.72,2.36-.04,1.21,1.38,1.23,1.47.06,0,0,0,0,0,0,0,.03.2-.27.11-.18.28-.28.57-.42.89-.56.93-.4,1.92-.51,2.9-.52v-1.91c-1.22,0-2.5.17-3.65.75Z"/>
        <path class="cls-6" d="M10.75,165.37c0,.22.04-.22,0,0,.05-.22.01-.05-.02.02.11-.24-.2.22-.08.11-.28.28-.57.43-.89.56-.93.4-1.92.51-2.9.52-.98,0-1.96-.14-2.9-.52-.31-.13-.56-.27-.84-.51-.04-.03-.09-.08-.19-.24.11.17.01,0,0-.05.04.13.05.14.02.04.01.15.01.17,0,.06-.04-1.23-1.51-1.23-1.47,0,.04,1.27.91,1.93,1.72,2.36,1.13.6,2.44.75,3.65.75,1.22,0,2.5-.18,3.65-.75.81-.41,1.68-1.11,1.72-2.36.04-1.23-1.43-1.23-1.47,0Z"/>
        <path class="cls-6" d="M10.75,173.01c0,.22.04-.22,0,0,.05-.22.01-.05-.02.02.11-.24-.2.23-.08.11-.28.28-.57.43-.89.56-.93.4-1.92.51-2.9.52-.98,0-1.96-.14-2.9-.52-.31-.12-.56-.27-.84-.51-.04-.03-.09-.08-.19-.24.11.17.01,0,0-.04.04.13.05.14.02.04.01.15.01.17,0,.06-.04-1.23-1.51-1.23-1.47,0,.04,1.27.91,1.93,1.72,2.36,1.13.61,2.44.75,3.65.75,1.22,0,2.5-.18,3.65-.75.81-.41,1.68-1.11,1.72-2.36.04-1.23-1.43-1.23-1.47,0Z"/>
        <path class="cls-6" d="M10.75,180.66c0,.22.04-.22,0,0,.05-.22.01-.05-.02.02.11-.24-.2.22-.08.11-.28.28-.57.42-.89.56-.93.4-1.92.51-2.9.52-.98,0-1.96-.14-2.9-.52-.31-.13-.56-.27-.84-.51-.04-.03-.09-.08-.19-.24.11.17.01,0,0-.04.04.13.05.14.02.04.01.15.01.17,0,.07-.04-1.23-1.51-1.23-1.47,0,.04,1.27.91,1.93,1.72,2.36,1.13.6,2.44.74,3.65.75,1.22,0,2.5-.18,3.65-.75.81-.41,1.68-1.11,1.72-2.36.04-1.23-1.43-1.23-1.47,0Z"/>
        <path class="cls-6" d="M10.75,157.72c0,.22.04-.22,0,0,.05-.22.01-.05-.02.02.11-.24-.2.23-.08.11-.28.28-.57.43-.89.56-.93.4-1.92.51-2.9.52-.98,0-1.96-.14-2.9-.52-.31-.13-.56-.27-.84-.51-.04-.03-.09-.08-.19-.24.11.17.01,0,0-.05.04.13.05.14.02.04.01.15.01.17,0,.06-.04-1.23-1.51-1.23-1.47,0,.04,1.27.91,1.93,1.72,2.36,1.13.61,2.44.75,3.65.75,1.22,0,2.5-.18,3.65-.75.81-.41,1.68-1.11,1.72-2.36.04-1.23-1.43-1.23-1.47,0Z"/>
      </g>
      <g>
        <path class="cls-5" d="M9.54,150.42c0-1.06.83-1.92,1.86-1.92s1.86.86,1.86,1.92-.83,1.92-1.86,1.92c-1.03,0-1.86-.86-1.86-1.92Z"/>
        <path class="cls-5" d="M9.54,142.68c0-1.06.83-1.92,1.86-1.92,1.03,0,1.86.86,1.86,1.92,0,1.06-.83,1.92-1.86,1.92-1.03,0-1.86-.86-1.86-1.92Z"/>
        <path class="cls-5" d="M9.54,135.03c0-1.06.83-1.92,1.86-1.92,1.03,0,1.86.86,1.86,1.92s-.83,1.92-1.86,1.92c-1.03,0-1.86-.86-1.86-1.92Z"/>
        <path class="cls-5" d="M9.54,127.39c0-1.06.83-1.92,1.86-1.92,1.03,0,1.86.86,1.86,1.92,0,1.06-.83,1.92-1.86,1.92-1.03,0-1.86-.86-1.86-1.92Z"/>
        <path class="cls-5" d="M2.95,134.63s0-.02,0-.03c0,.01,0,.02,0,.04h0ZM3.2,132.23c-.81.41-1.68,1.11-1.72,2.36-.04,1.21,1.38,1.23,1.47.06,0,0,0,0,0,0,0,.03.2-.27.11-.18.28-.28.57-.43.89-.56.93-.4,1.92-.51,2.9-.52v-1.91c-1.22,0-2.5.17-3.65.75Z"/>
        <path class="cls-5" d="M2.95,142.28s0-.02,0-.03c0,.01,0,.02,0,.03h0ZM3.2,139.88c-.81.41-1.68,1.11-1.72,2.36-.04,1.21,1.38,1.23,1.47.06,0,0,0,0,0,0,0,.03.2-.27.11-.18.28-.28.57-.43.89-.56.93-.4,1.92-.51,2.9-.52v-1.91c-1.22,0-2.5.17-3.65.75Z"/>
        <path class="cls-5" d="M2.95,149.92s0-.02,0-.03c0,.01,0,.02,0,.03h0ZM3.2,147.53c-.81.41-1.68,1.11-1.72,2.37-.04,1.21,1.38,1.23,1.47.06,0,0,0,0,0,0,0,.03.2-.27.11-.18.28-.28.57-.42.89-.56.93-.4,1.92-.51,2.9-.52v-1.91c-1.22,0-2.5.17-3.65.75Z"/>
        <path class="cls-5" d="M2.95,126.99s0-.02,0-.03c0,.01,0,.02,0,.04h0ZM3.2,124.59c-.81.41-1.68,1.11-1.72,2.36-.04,1.21,1.38,1.23,1.47.06,0,0,0,0,0,0,0,.03.2-.27.11-.18.28-.28.57-.42.89-.56.93-.4,1.92-.51,2.9-.52v-1.91c-1.22,0-2.5.17-3.65.75Z"/>
        <path class="cls-6" d="M10.75,135.03c0,.22.04-.22,0,0,.05-.22.01-.05-.02.02.11-.24-.2.22-.08.11-.28.28-.57.43-.89.56-.93.4-1.92.51-2.9.52-.98,0-1.96-.14-2.9-.52-.31-.13-.56-.27-.84-.51-.04-.03-.09-.08-.19-.24.11.17.01,0,0-.05.04.13.05.14.02.04.01.15.01.17,0,.06-.04-1.23-1.51-1.23-1.47,0,.04,1.27.91,1.93,1.72,2.36,1.13.6,2.44.75,3.65.75,1.22,0,2.5-.18,3.65-.75.81-.41,1.68-1.11,1.72-2.36.04-1.23-1.43-1.23-1.47,0Z"/>
        <path class="cls-6" d="M10.75,142.68c0,.22.04-.22,0,0,.05-.22.01-.05-.02.02.11-.24-.2.23-.08.11-.28.28-.57.43-.89.56-.93.4-1.92.51-2.9.52-.98,0-1.96-.14-2.9-.52-.31-.12-.56-.27-.84-.51-.04-.03-.09-.08-.19-.24.11.17.01,0,0-.04.04.13.05.14.02.04.01.15.01.17,0,.06-.04-1.23-1.51-1.23-1.47,0,.04,1.27.91,1.93,1.72,2.36,1.13.61,2.44.75,3.65.75,1.22,0,2.5-.18,3.65-.75.81-.41,1.68-1.11,1.72-2.36.04-1.23-1.43-1.23-1.47,0Z"/>
        <path class="cls-6" d="M10.75,150.32c0,.22.04-.22,0,0,.05-.22.01-.05-.02.02.11-.24-.2.22-.08.11-.28.28-.57.42-.89.56-.93.4-1.92.51-2.9.52-.98,0-1.96-.14-2.9-.52-.31-.13-.56-.27-.84-.51-.04-.03-.09-.08-.19-.24.11.17.01,0,0-.04.04.13.05.14.02.04.01.15.01.17,0,.07-.04-1.23-1.51-1.23-1.47,0,.04,1.27.91,1.93,1.72,2.36,1.13.6,2.44.74,3.65.75,1.22,0,2.5-.18,3.65-.75.81-.41,1.68-1.11,1.72-2.36.04-1.23-1.43-1.23-1.47,0Z"/>
        <path class="cls-6" d="M10.75,127.39c0,.22.04-.22,0,0,.05-.22.01-.05-.02.02.11-.24-.2.23-.08.11-.28.28-.57.43-.89.56-.93.4-1.92.51-2.9.52-.98,0-1.96-.14-2.9-.52-.31-.13-.56-.27-.84-.51-.04-.03-.09-.08-.19-.24.11.17.01,0,0-.05.04.13.05.14.02.04.01.15.01.17,0,.06-.04-1.23-1.51-1.23-1.47,0,.04,1.27.91,1.93,1.72,2.36,1.13.61,2.44.75,3.65.75,1.22,0,2.5-.18,3.65-.75.81-.41,1.68-1.11,1.72-2.36.04-1.23-1.43-1.23-1.47,0Z"/>
      </g>
      <g>
        <path class="cls-5" d="M9.54,120.08c0-1.06.83-1.92,1.86-1.92,1.03,0,1.86.86,1.86,1.92s-.83,1.92-1.86,1.92c-1.03,0-1.86-.86-1.86-1.92Z"/>
        <path class="cls-5" d="M9.54,112.35c0-1.06.83-1.92,1.86-1.92,1.03,0,1.86.86,1.86,1.92,0,1.06-.83,1.92-1.86,1.92-1.03,0-1.86-.86-1.86-1.92Z"/>
        <path class="cls-5" d="M9.54,104.7c0-1.06.83-1.92,1.86-1.92,1.03,0,1.86.86,1.86,1.92s-.83,1.92-1.86,1.92c-1.03,0-1.86-.86-1.86-1.92Z"/>
        <path class="cls-5" d="M9.54,97.05c0-1.06.83-1.92,1.86-1.92,1.03,0,1.86.86,1.86,1.92,0,1.06-.83,1.92-1.86,1.92-1.03,0-1.86-.86-1.86-1.92Z"/>
        <path class="cls-5" d="M2.95,104.3s0-.02,0-.03c0,.01,0,.02,0,.04h0ZM3.2,101.9c-.81.41-1.68,1.11-1.72,2.36-.04,1.21,1.38,1.23,1.47.06,0,0,0,0,0,0,0,.03.2-.27.11-.18.28-.28.57-.43.89-.56.93-.4,1.92-.51,2.9-.52v-1.91c-1.22,0-2.5.17-3.65.75Z"/>
        <path class="cls-5" d="M2.95,111.94s0-.02,0-.03c0,.01,0,.02,0,.03h0ZM3.2,109.55c-.81.41-1.68,1.11-1.72,2.36-.04,1.21,1.38,1.23,1.47.06,0,0,0,0,0,0,0,.03.2-.27.11-.18.28-.28.57-.43.89-.56.93-.4,1.92-.51,2.9-.52v-1.91c-1.22,0-2.5.17-3.65.75Z"/>
        <path class="cls-5" d="M2.95,119.59s0-.02,0-.03c0,.01,0,.02,0,.03h0ZM3.2,117.19c-.81.41-1.68,1.11-1.72,2.37-.04,1.21,1.38,1.23,1.47.06,0,0,0,0,0,0,0,.03.2-.27.11-.18.28-.28.57-.42.89-.56.93-.4,1.92-.51,2.9-.52v-1.91c-1.22,0-2.5.17-3.65.75Z"/>
        <path class="cls-5" d="M2.95,96.65s0-.02,0-.03c0,.01,0,.02,0,.04h0ZM3.2,94.25c-.81.41-1.68,1.11-1.72,2.36-.04,1.21,1.38,1.23,1.47.06,0,0,0,0,0,0,0,.03.2-.27.11-.18.28-.28.57-.42.89-.56.93-.4,1.92-.51,2.9-.52v-1.91c-1.22,0-2.5.17-3.65.75Z"/>
        <path class="cls-6" d="M10.75,104.7c0,.22.04-.22,0,0,.05-.22.01-.05-.02.02.11-.24-.2.22-.08.11-.28.28-.57.43-.89.56-.93.4-1.92.51-2.9.52-.98,0-1.96-.14-2.9-.52-.31-.13-.56-.27-.84-.51-.04-.03-.09-.08-.19-.24.11.17.01,0,0-.05.04.13.05.14.02.04.01.15.01.17,0,.06-.04-1.23-1.51-1.23-1.47,0,.04,1.27.91,1.93,1.72,2.36,1.13.6,2.44.75,3.65.75,1.22,0,2.5-.18,3.65-.75.81-.41,1.68-1.11,1.72-2.36.04-1.23-1.43-1.23-1.47,0Z"/>
        <path class="cls-6" d="M10.75,112.34c0,.22.04-.22,0,0,.05-.22.01-.05-.02.02.11-.24-.2.23-.08.11-.28.28-.57.43-.89.56-.93.4-1.92.51-2.9.52-.98,0-1.96-.14-2.9-.52-.31-.12-.56-.27-.84-.51-.04-.03-.09-.08-.19-.24.11.17.01,0,0-.04.04.13.05.14.02.04.01.15.01.17,0,.06-.04-1.23-1.51-1.23-1.47,0,.04,1.27.91,1.93,1.72,2.36,1.13.61,2.44.75,3.65.75,1.22,0,2.5-.18,3.65-.75.81-.41,1.68-1.11,1.72-2.36.04-1.23-1.43-1.23-1.47,0Z"/>
        <path class="cls-6" d="M10.75,119.99c0,.22.04-.22,0,0,.05-.22.01-.05-.02.02.11-.24-.2.22-.08.11-.28.28-.57.42-.89.56-.93.4-1.92.51-2.9.52-.98,0-1.96-.14-2.9-.52-.31-.13-.56-.27-.84-.51-.04-.03-.09-.08-.19-.24.11.17.01,0,0-.04.04.13.05.14.02.04.01.15.01.17,0,.07-.04-1.23-1.51-1.23-1.47,0,.04,1.27.91,1.93,1.72,2.36,1.13.6,2.44.74,3.65.75,1.22,0,2.5-.18,3.65-.75.81-.41,1.68-1.11,1.72-2.36.04-1.23-1.43-1.23-1.47,0Z"/>
        <path class="cls-6" d="M10.75,97.05c0,.22.04-.22,0,0,.05-.22.01-.05-.02.02.11-.24-.2.23-.08.11-.28.28-.57.43-.89.56-.93.4-1.92.51-2.9.52-.98,0-1.96-.14-2.9-.52-.31-.13-.56-.27-.84-.51-.04-.03-.09-.08-.19-.24.11.17.01,0,0-.05.04.13.05.14.02.04.01.15.01.17,0,.06-.04-1.23-1.51-1.23-1.47,0,.04,1.27.91,1.93,1.72,2.36,1.13.61,2.44.75,3.65.75,1.22,0,2.5-.18,3.65-.75.81-.41,1.68-1.11,1.72-2.36.04-1.23-1.43-1.23-1.47,0Z"/>
      </g>
    </g>
    <g>
      <g>
        <path class="cls-5" d="M9.54,97.23c0-1.06.83-1.92,1.86-1.92,1.03,0,1.86.86,1.86,1.92s-.83,1.92-1.86,1.92c-1.03,0-1.86-.86-1.86-1.92Z"/>
        <path class="cls-5" d="M9.54,89.49c0-1.06.83-1.92,1.86-1.92s1.86.86,1.86,1.92c0,1.06-.83,1.92-1.86,1.92-1.03,0-1.86-.86-1.86-1.92Z"/>
        <path class="cls-5" d="M9.54,81.85c0-1.06.83-1.92,1.86-1.92,1.03,0,1.86.86,1.86,1.92s-.83,1.92-1.86,1.92c-1.03,0-1.86-.86-1.86-1.92Z"/>
        <path class="cls-5" d="M9.54,74.2c0-1.06.83-1.92,1.86-1.92,1.03,0,1.86.86,1.86,1.92,0,1.06-.83,1.92-1.86,1.92-1.03,0-1.86-.86-1.86-1.92Z"/>
        <path class="cls-5" d="M2.95,81.45s0-.02,0-.03c0,.01,0,.02,0,.04h0ZM3.2,79.05c-.81.41-1.68,1.11-1.72,2.36-.04,1.21,1.38,1.23,1.47.06,0,0,0,0,0,0,0,.03.2-.27.11-.18.28-.28.57-.43.89-.56.93-.4,1.92-.51,2.9-.52v-1.91c-1.22,0-2.5.17-3.65.75Z"/>
        <path class="cls-5" d="M2.95,89.09s0-.02,0-.03c0,.01,0,.02,0,.03h0ZM3.2,86.7c-.81.41-1.68,1.11-1.72,2.36-.04,1.21,1.38,1.23,1.47.06,0,0,0,0,0,0,0,.03.2-.27.11-.18.28-.28.57-.43.89-.56.93-.4,1.92-.51,2.9-.52v-1.91c-1.22,0-2.5.17-3.65.75Z"/>
        <path class="cls-5" d="M2.95,96.74s0-.02,0-.03c0,.01,0,.02,0,.03h0ZM3.2,94.34c-.81.41-1.68,1.11-1.72,2.37-.04,1.21,1.38,1.23,1.47.06,0,0,0,0,0,0,0,.03.2-.27.11-.18.28-.28.57-.42.89-.56.93-.4,1.92-.51,2.9-.52v-1.91c-1.22,0-2.5.17-3.65.75Z"/>
        <path class="cls-5" d="M2.95,73.8s0-.02,0-.03c0,.01,0,.02,0,.04h0ZM3.2,71.4c-.81.41-1.68,1.11-1.72,2.36-.04,1.21,1.38,1.23,1.47.06,0,0,0,0,0,0,0,.03.2-.27.11-.18.28-.28.57-.42.89-.56.93-.4,1.92-.51,2.9-.52v-1.91c-1.22,0-2.5.17-3.65.75Z"/>
        <path class="cls-6" d="M10.75,81.85c0,.22.04-.22,0,0,.05-.22.01-.05-.02.02.11-.24-.2.22-.08.11-.28.28-.57.43-.89.56-.93.4-1.92.51-2.9.52-.98,0-1.96-.14-2.9-.52-.31-.13-.56-.27-.84-.51-.04-.03-.09-.08-.19-.24.11.17.01,0,0-.05.04.13.05.14.02.04.01.15.01.17,0,.06-.04-1.23-1.51-1.23-1.47,0,.04,1.27.91,1.93,1.72,2.36,1.13.6,2.44.75,3.65.75,1.22,0,2.5-.18,3.65-.75.81-.41,1.68-1.11,1.72-2.36.04-1.23-1.43-1.23-1.47,0Z"/>
        <path class="cls-6" d="M10.75,89.49c0,.22.04-.22,0,0,.05-.22.01-.05-.02.02.11-.24-.2.23-.08.11-.28.28-.57.43-.89.56-.93.4-1.92.51-2.9.52-.98,0-1.96-.14-2.9-.52-.31-.12-.56-.27-.84-.51-.04-.03-.09-.08-.19-.24.11.17.01,0,0-.04.04.13.05.14.02.04.01.15.01.17,0,.06-.04-1.23-1.51-1.23-1.47,0,.04,1.27.91,1.93,1.72,2.36,1.13.61,2.44.75,3.65.75,1.22,0,2.5-.18,3.65-.75.81-.41,1.68-1.11,1.72-2.36.04-1.23-1.43-1.23-1.47,0Z"/>
        <path class="cls-6" d="M10.75,97.14c0,.22.04-.22,0,0,.05-.22.01-.05-.02.02.11-.24-.2.22-.08.11-.28.28-.57.42-.89.56-.93.4-1.92.51-2.9.52-.98,0-1.96-.14-2.9-.52-.31-.13-.56-.27-.84-.51-.04-.03-.09-.08-.19-.24.11.17.01,0,0-.04.04.13.05.14.02.04.01.15.01.17,0,.07-.04-1.23-1.51-1.23-1.47,0,.04,1.27.91,1.93,1.72,2.36,1.13.6,2.44.74,3.65.75,1.22,0,2.5-.18,3.65-.75.81-.41,1.68-1.11,1.72-2.36.04-1.23-1.43-1.23-1.47,0Z"/>
        <path class="cls-6" d="M10.75,74.2c0,.22.04-.22,0,0,.05-.22.01-.05-.02.02.11-.24-.2.23-.08.11-.28.28-.57.43-.89.56-.93.4-1.92.51-2.9.52-.98,0-1.96-.14-2.9-.52-.31-.13-.56-.27-.84-.51-.04-.03-.09-.08-.19-.24.11.17.01,0,0-.05.04.13.05.14.02.04.01.15.01.17,0,.06-.04-1.23-1.51-1.23-1.47,0,.04,1.27.91,1.93,1.72,2.36,1.13.61,2.44.75,3.65.75,1.22,0,2.5-.18,3.65-.75.81-.41,1.68-1.11,1.72-2.36.04-1.23-1.43-1.23-1.47,0Z"/>
      </g>
      <g>
        <path class="cls-5" d="M9.54,66.9c0-1.06.83-1.92,1.86-1.92,1.03,0,1.86.86,1.86,1.92s-.83,1.92-1.86,1.92-1.86-.86-1.86-1.92Z"/>
        <path class="cls-5" d="M9.54,59.16c0-1.06.83-1.92,1.86-1.92,1.03,0,1.86.86,1.86,1.92,0,1.06-.83,1.92-1.86,1.92-1.03,0-1.86-.86-1.86-1.92Z"/>
        <path class="cls-5" d="M9.54,51.52c0-1.06.83-1.92,1.86-1.92,1.03,0,1.86.86,1.86,1.92s-.83,1.92-1.86,1.92c-1.03,0-1.86-.86-1.86-1.92Z"/>
        <path class="cls-5" d="M9.54,43.87c0-1.06.83-1.92,1.86-1.92,1.03,0,1.86.86,1.86,1.92,0,1.06-.83,1.92-1.86,1.92-1.03,0-1.86-.86-1.86-1.92Z"/>
        <path class="cls-5" d="M2.95,51.11s0-.02,0-.03c0,.01,0,.02,0,.04h0ZM3.2,48.72c-.81.41-1.68,1.11-1.72,2.36-.04,1.21,1.38,1.23,1.47.06,0,0,0,0,0,0,0,.03.2-.27.11-.18.28-.28.57-.43.89-.56.93-.4,1.92-.51,2.9-.52v-1.91c-1.22,0-2.5.17-3.65.75Z"/>
        <path class="cls-5" d="M2.95,58.76s0-.02,0-.03c0,.01,0,.02,0,.03h0ZM3.2,56.36c-.81.41-1.68,1.11-1.72,2.36-.04,1.21,1.38,1.23,1.47.06,0,0,0,0,0,0,0,.03.2-.27.11-.18.28-.28.57-.43.89-.56.93-.4,1.92-.51,2.9-.52v-1.91c-1.22,0-2.5.17-3.65.75Z"/>
        <path class="cls-5" d="M2.95,66.41s0-.02,0-.03c0,.01,0,.02,0,.03h0ZM3.2,64.01c-.81.41-1.68,1.11-1.72,2.37-.04,1.21,1.38,1.23,1.47.06,0,0,0,0,0,0,0,.03.2-.27.11-.18.28-.28.57-.42.89-.56.93-.4,1.92-.51,2.9-.52v-1.91c-1.22,0-2.5.17-3.65.75Z"/>
        <path class="cls-5" d="M2.95,43.47s0-.02,0-.03c0,.01,0,.02,0,.04h0ZM3.2,41.07c-.81.41-1.68,1.11-1.72,2.36-.04,1.21,1.38,1.23,1.47.06,0,0,0,0,0,0,0,.03.2-.27.11-.18.28-.28.57-.42.89-.56.93-.4,1.92-.51,2.9-.52v-1.91c-1.22,0-2.5.17-3.65.75Z"/>
        <path class="cls-6" d="M10.75,51.52c0,.22.04-.22,0,0,.05-.22.01-.05-.02.02.11-.24-.2.22-.08.11-.28.28-.57.43-.89.56-.93.4-1.92.51-2.9.52-.98,0-1.96-.14-2.9-.52-.31-.13-.56-.27-.84-.51-.04-.03-.09-.08-.19-.24.11.17.01,0,0-.05.04.13.05.14.02.04.01.15.01.17,0,.06-.04-1.23-1.51-1.23-1.47,0,.04,1.27.91,1.93,1.72,2.36,1.13.6,2.44.75,3.65.75,1.22,0,2.5-.18,3.65-.75.81-.41,1.68-1.11,1.72-2.36.04-1.23-1.43-1.23-1.47,0Z"/>
        <path class="cls-6" d="M10.75,59.16c0,.22.04-.22,0,0,.05-.22.01-.05-.02.02.11-.24-.2.23-.08.11-.28.28-.57.43-.89.56-.93.4-1.92.51-2.9.52-.98,0-1.96-.14-2.9-.52-.31-.12-.56-.27-.84-.51-.04-.03-.09-.08-.19-.24.11.17.01,0,0-.04.04.13.05.14.02.04.01.15.01.17,0,.06-.04-1.23-1.51-1.23-1.47,0,.04,1.27.91,1.93,1.72,2.36,1.13.61,2.44.75,3.65.75,1.22,0,2.5-.18,3.65-.75.81-.41,1.68-1.11,1.72-2.36.04-1.23-1.43-1.23-1.47,0Z"/>
        <path class="cls-6" d="M10.75,66.81c0,.22.04-.22,0,0,.05-.22.01-.05-.02.02.11-.24-.2.22-.08.11-.28.28-.57.42-.89.56-.93.4-1.92.51-2.9.52-.98,0-1.96-.14-2.9-.52-.31-.13-.56-.27-.84-.51-.04-.03-.09-.08-.19-.24.11.17.01,0,0-.04.04.13.05.14.02.04.01.15.01.17,0,.07-.04-1.23-1.51-1.23-1.47,0,.04,1.27.91,1.93,1.72,2.36,1.13.6,2.44.74,3.65.75,1.22,0,2.5-.18,3.65-.75.81-.41,1.68-1.11,1.72-2.36.04-1.23-1.43-1.23-1.47,0Z"/>
        <path class="cls-6" d="M10.75,43.87c0,.22.04-.22,0,0,.05-.22.01-.05-.02.02.11-.24-.2.23-.08.11-.28.28-.57.43-.89.56-.93.4-1.92.51-2.9.52-.98,0-1.96-.14-2.9-.52-.31-.13-.56-.27-.84-.51-.04-.03-.09-.08-.19-.24.11.17.01,0,0-.05.04.13.05.14.02.04.01.15.01.17,0,.06-.04-1.23-1.51-1.23-1.47,0,.04,1.27.91,1.93,1.72,2.36,1.13.61,2.44.75,3.65.75,1.22,0,2.5-.18,3.65-.75.81-.41,1.68-1.11,1.72-2.36.04-1.23-1.43-1.23-1.47,0Z"/>
      </g>
      <g>
        <path class="cls-5" d="M9.54,36.57c0-1.06.83-1.92,1.86-1.92,1.03,0,1.86.86,1.86,1.92s-.83,1.92-1.86,1.92c-1.03,0-1.86-.86-1.86-1.92Z"/>
        <path class="cls-5" d="M9.54,28.83c0-1.06.83-1.92,1.86-1.92,1.03,0,1.86.86,1.86,1.92,0,1.06-.83,1.92-1.86,1.92-1.03,0-1.86-.86-1.86-1.92Z"/>
        <path class="cls-5" d="M9.54,21.18c0-1.06.83-1.92,1.86-1.92,1.03,0,1.86.86,1.86,1.92s-.83,1.92-1.86,1.92-1.86-.86-1.86-1.92Z"/>
        <path class="cls-5" d="M9.54,13.54c0-1.06.83-1.92,1.86-1.92s1.86.86,1.86,1.92c0,1.06-.83,1.92-1.86,1.92-1.03,0-1.86-.86-1.86-1.92Z"/>
        <path class="cls-5" d="M2.95,20.78s0-.02,0-.03c0,.01,0,.02,0,.04h0ZM3.2,18.39c-.81.41-1.68,1.11-1.72,2.36-.04,1.21,1.38,1.23,1.47.06,0,0,0,0,0,0,0,.03.2-.27.11-.18.28-.28.57-.43.89-.56.93-.4,1.92-.51,2.9-.52v-1.91c-1.22,0-2.5.17-3.65.75Z"/>
        <path class="cls-5" d="M2.95,28.43s0-.02,0-.03c0,.01,0,.02,0,.03h0ZM3.2,26.03c-.81.41-1.68,1.11-1.72,2.36-.04,1.21,1.38,1.23,1.47.06,0,0,0,0,0,0,0,.03.2-.27.11-.18.28-.28.57-.43.89-.56.93-.4,1.92-.51,2.9-.52v-1.91c-1.22,0-2.5.17-3.65.75Z"/>
        <path class="cls-5" d="M2.95,36.08s0-.02,0-.03c0,.01,0,.02,0,.03h0ZM3.2,33.68c-.81.41-1.68,1.11-1.72,2.37-.04,1.21,1.38,1.23,1.47.06,0,0,0,0,0,0,0,.03.2-.27.11-.18.28-.28.57-.42.89-.56.93-.4,1.92-.51,2.9-.52v-1.91c-1.22,0-2.5.17-3.65.75Z"/>
        <path class="cls-5" d="M2.95,13.14s0-.02,0-.03c0,.01,0,.02,0,.04h0ZM3.2,10.74c-.81.41-1.68,1.11-1.72,2.36-.04,1.21,1.38,1.23,1.47.06,0,0,0,0,0,0,0,.03.2-.27.11-.18.28-.28.57-.42.89-.56.93-.4,1.92-.51,2.9-.52v-1.91c-1.22,0-2.5.17-3.65.75Z"/>
        <path class="cls-6" d="M10.75,21.18c0,.22.04-.22,0,0,.05-.22.01-.05-.02.02.11-.24-.2.22-.08.11-.28.28-.57.43-.89.56-.93.4-1.92.51-2.9.52-.98,0-1.96-.14-2.9-.52-.31-.13-.56-.27-.84-.51-.04-.03-.09-.08-.19-.24.11.17.01,0,0-.05.04.13.05.14.02.04.01.15.01.17,0,.06-.04-1.23-1.51-1.23-1.47,0,.04,1.27.91,1.93,1.72,2.36,1.13.6,2.44.75,3.65.75,1.22,0,2.5-.18,3.65-.75.81-.41,1.68-1.11,1.72-2.36.04-1.23-1.43-1.23-1.47,0Z"/>
        <path class="cls-6" d="M10.75,28.83c0,.22.04-.22,0,0,.05-.22.01-.05-.02.02.11-.24-.2.23-.08.11-.28.28-.57.43-.89.56-.93.4-1.92.51-2.9.52-.98,0-1.96-.14-2.9-.52-.31-.12-.56-.27-.84-.51-.04-.03-.09-.08-.19-.24.11.17.01,0,0-.04.04.13.05.14.02.04.01.15.01.17,0,.06-.04-1.23-1.51-1.23-1.47,0,.04,1.27.91,1.93,1.72,2.36,1.13.61,2.44.75,3.65.75,1.22,0,2.5-.18,3.65-.75.81-.41,1.68-1.11,1.72-2.36.04-1.23-1.43-1.23-1.47,0Z"/>
        <path class="cls-6" d="M10.75,36.48c0,.22.04-.22,0,0,.05-.22.01-.05-.02.02.11-.24-.2.22-.08.11-.28.28-.57.42-.89.56-.93.4-1.92.51-2.9.52-.98,0-1.96-.14-2.9-.52-.31-.13-.56-.27-.84-.51-.04-.03-.09-.08-.19-.24.11.17.01,0,0-.04.04.13.05.14.02.04.01.15.01.17,0,.07-.04-1.23-1.51-1.23-1.47,0,.04,1.27.91,1.93,1.72,2.36,1.13.6,2.44.74,3.65.75,1.22,0,2.5-.18,3.65-.75.81-.41,1.68-1.11,1.72-2.36.04-1.23-1.43-1.23-1.47,0Z"/>
        <path class="cls-6" d="M10.75,13.54c0,.22.04-.22,0,0,.05-.22.01-.05-.02.02.11-.24-.2.23-.08.11-.28.28-.57.43-.89.56-.93.4-1.92.51-2.9.52-.98,0-1.96-.14-2.9-.52-.31-.13-.56-.27-.84-.51-.04-.03-.09-.08-.19-.24.11.17.01,0,0-.05.04.13.05.14.02.04.01.15.01.17,0,.06-.04-1.23-1.51-1.23-1.47,0,.04,1.27.91,1.93,1.72,2.36,1.13.61,2.44.75,3.65.75,1.22,0,2.5-.18,3.65-.75.81-.41,1.68-1.11,1.72-2.36.04-1.23-1.43-1.23-1.47,0Z"/>
      </g>
    </g>
  </g>
</svg>